<svg width="44" height="52" viewBox="0 0 44 52" fill="none" xmlns="http://www.w3.org/2000/svg">
<path d="M22.0002 0.75C11.0627 0.75 2.31269 9.5 2.31269 20.4375C1.65644 20.4375 1.00019 20.875 0.562693 21.3125C0.125193 21.9688 -0.0935565 22.625 0.343944 23.2812L2.53144 29.8437C2.75019 30.7187 3.62519 31.375 4.50019 31.375H5.59832C6.01613 32.005 6.47332 32.6022 6.96113 33.1775C7.63488 34.2188 8.43551 35.1681 9.33676 36.0103C7.13985 37.8559 5.37288 40.1593 4.15957 42.7594C2.94626 45.3594 2.31592 48.1933 2.31269 51.0625H6.68769C6.68769 46.0969 9.05019 41.5119 13.0839 38.5784C15.1807 39.5971 17.4816 40.126 19.8127 40.125H24.1877C26.4901 40.1259 28.7633 39.6101 30.8399 38.6156C34.8299 41.4353 37.3127 46.1538 37.3127 51.0625H41.6877C41.6876 48.195 41.052 45.3631 39.8265 42.7706C38.601 40.1781 36.8161 37.8895 34.6002 36.0694C35.5277 35.2119 36.3502 34.245 37.0393 33.1775C37.5271 32.6022 37.9843 32.005 38.4021 31.375H39.5002C40.3752 31.375 41.2502 30.7187 41.4689 29.8437L43.6564 23.2812C44.0939 22.625 43.8752 21.9688 43.4377 21.3125C43.0002 20.875 42.3439 20.4375 41.6877 20.4375C41.6877 9.5 32.9377 0.75 22.0002 0.75ZM22.0002 5.125C25.6411 5.10344 29.1687 6.39021 31.9406 8.75099C34.7125 11.1118 36.5444 14.3896 37.1027 17.9875C36.0846 16.6989 34.7865 15.659 33.3069 14.9465C31.8273 14.234 30.2049 13.8676 28.5627 13.875H15.4377C13.7955 13.8676 12.1731 14.234 10.6935 14.9465C9.21386 15.659 7.91582 16.6989 6.89769 17.9875C7.45597 14.3896 9.28784 11.1118 12.0598 8.75099C14.8317 6.39021 18.3593 5.10344 22.0002 5.125ZM15.4377 18.25H28.5627C32.2814 18.25 35.1252 21.0938 35.1252 24.8125C35.1252 26.3766 34.8058 27.8531 34.2371 29.1875H24.1877C22.8752 29.1875 22.0002 30.2812 22.0002 31.375C22.0002 32.6875 23.0939 33.5625 24.1877 33.5625H29.9189C27.5275 34.9985 24.7896 35.7549 22.0002 35.75C17.4064 35.75 13.3311 33.7725 10.5377 30.6225C9.45041 28.8797 8.87437 26.8666 8.87519 24.8125C8.87519 21.0938 11.7189 18.25 15.4377 18.25Z" fill="#B31918"/>
</svg>
